<?xml version="1.0" encoding="UTF-8" standalone="no"?>
<!DOCTYPE svg PUBLIC "-//W3C//DTD SVG 1.1//EN" "http://www.w3.org/Graphics/SVG/1.1/DTD/svg11.dtd">
<svg width="100%" height="100%" viewBox="0 0 890 220" version="1.1" xmlns="http://www.w3.org/2000/svg" xmlns:xlink="http://www.w3.org/1999/xlink" xml:space="preserve" xmlns:serif="http://www.serif.com/" style="fill-rule:evenodd;clip-rule:evenodd;stroke-linejoin:round;stroke-miterlimit:2;">
    <g transform="matrix(10,0,0,10,0,0)">
        <g id="a">
            <g transform="matrix(1,0,0,1,-502.133,-502.451)">
                <g transform="matrix(1,0,0,1,-4286.9,1867)">
                    <path d="M4856.57,-1353.51C4856.57,-1353.62 4856.57,-1353.74 4856.57,-1353.85C4856.57,-1359.67 4861.31,-1364.47 4867.12,-1364.55C4872.96,-1364.48 4877.72,-1359.66 4877.72,-1353.82C4877.72,-1353.72 4877.72,-1353.61 4877.72,-1353.51C4877.72,-1353.41 4877.72,-1353.31 4877.72,-1353.21C4877.72,-1347.38 4872.95,-1342.58 4867.12,-1342.55C4861.32,-1342.59 4856.57,-1347.37 4856.57,-1353.17C4856.57,-1353.29 4856.57,-1353.4 4856.57,-1353.51ZM4861.95,-1353.47C4861.95,-1349.92 4864.27,-1347.48 4867.12,-1347.48C4869.97,-1347.48 4872.3,-1349.92 4872.3,-1353.47C4872.3,-1357.09 4869.97,-1359.62 4867.12,-1359.62C4864.27,-1359.62 4861.95,-1357.09 4861.95,-1353.47L4861.95,-1353.47ZM4811.1,-1351.76L4811.1,-1364.02L4803.5,-1353.84L4800.45,-1357.93L4804.99,-1364.02L4816.48,-1364.02L4816.48,-1351.76C4816.48,-1350.57 4816.89,-1347.64 4820.39,-1347.64C4820.43,-1347.64 4820.46,-1347.64 4820.5,-1347.64C4822.68,-1347.64 4824.47,-1349.43 4824.47,-1351.61C4824.47,-1351.66 4824.47,-1351.71 4824.47,-1351.76L4824.47,-1364.02L4829.84,-1364.02L4829.84,-1362.26C4831.15,-1363.74 4833.04,-1364.58 4835.02,-1364.55C4837.46,-1364.6 4839.79,-1363.49 4841.29,-1361.57C4842.86,-1363.49 4845.22,-1364.59 4847.69,-1364.55C4853.31,-1364.55 4856.57,-1360.8 4856.57,-1355.3L4856.57,-1343.04L4851.2,-1343.04L4851.2,-1355.3C4851.2,-1356.52 4850.79,-1359.46 4847.28,-1359.46C4847.25,-1359.46 4847.22,-1359.46 4847.19,-1359.46C4845,-1359.46 4843.21,-1357.66 4843.21,-1355.48C4843.21,-1355.42 4843.21,-1355.36 4843.21,-1355.3L4843.21,-1343.04L4837.79,-1343.04L4837.79,-1355.3C4837.79,-1356.52 4837.43,-1359.46 4833.88,-1359.46C4833.86,-1359.46 4833.84,-1359.46 4833.82,-1359.46C4831.64,-1359.46 4829.84,-1357.66 4829.84,-1355.49C4829.84,-1355.42 4829.85,-1355.36 4829.85,-1355.3L4829.85,-1343.04L4824.72,-1343.04L4824.72,-1344.95C4823.38,-1343.4 4821.42,-1342.52 4819.38,-1342.55C4814.4,-1342.55 4811.1,-1346.26 4811.1,-1351.76L4811.1,-1351.76ZM4805.48,-1343.03L4800.45,-1349.76L4803.5,-1353.84L4811.55,-1343.03L4805.48,-1343.03Z" style="fill:#001F3F;fill-rule:nonzero;"/>
                </g>
                <g transform="matrix(1,0,0,1,-9.636,-11.457)">
                    <path d="M523.185,520.53L518.644,514.438L512.532,514.438L520.139,524.618L526.231,524.618L523.185,520.53Z" style="fill:#507687;fill-rule:nonzero;"/>
                </g>
                <g transform="matrix(1,0,0,1,0,-231.685)">
                    <path d="M516.6,744.845L510.5,744.845L502.448,755.651L508.519,755.651L513.547,748.922L516.593,744.845L516.6,744.845Z" style="fill:#384B70;fill-rule:nonzero;"/>
                </g>
            </g>
        </g>
    </g>
</svg>
