<svg width="159" height="159" viewBox="0 0 165 159" fill="none" xmlns="http://www.w3.org/2000/svg">
<path fill-rule="evenodd" clip-rule="evenodd" d="M0.000244141 79.1733C0.000244141 122.654 35.3687 158.347 79.1736 158.347C122.978 158.347 158.347 122.654 158.347 79.1733C158.347 35.6929 122.978 0 79.1736 0C35.6931 0 0.000244141 35.6929 0.000244141 79.1733ZM145.045 55.8124H148.614C150.886 62.9509 152.508 70.7385 152.184 79.175C152.184 87.6115 150.886 95.7235 148.29 103.187H145.045C128.401 103.596 114.109 107.389 101.059 110.853C83.0703 115.628 67.4427 119.776 51.2701 113.57C34.3971 107.08 27.2585 93.4521 27.2585 79.4995C27.2585 65.5468 34.7215 51.5941 51.2701 45.429C67.4427 39.2232 83.0703 43.3712 101.059 48.1457C114.109 51.6095 128.401 55.4031 145.045 55.8124ZM39.9121 139.851C39.437 139.851 39.1358 139.677 38.7539 139.456C38.6141 139.376 38.4635 139.289 38.2897 139.202C49.971 147.314 64.2481 151.856 79.4987 151.856C105.133 151.856 127.846 138.553 140.826 118.435C129.457 121.739 119.718 125.944 110.492 129.928C88.9117 139.248 70.1446 147.352 39.9121 139.851ZM79.1786 5.84271C105.461 5.84271 128.175 19.7954 141.154 40.2377C129.604 36.9799 119.706 32.7009 110.299 28.6343C88.7862 19.3348 69.8437 11.1461 39.5919 18.8219C39.1052 18.9842 38.5373 19.1464 37.9695 19.3087C37.4017 19.4709 36.8338 19.6331 36.3471 19.7954C48.3529 11.0344 63.279 5.84271 79.1786 5.84271Z" fill="#ff5a1f"/>
</svg>
