<?xml version="1.0" encoding="UTF-8" standalone="no"?>
<!-- Generator: Adobe Illustrator 16.0.0, SVG Export Plug-In . SVG Version: 6.00 Build 0)  -->

<svg
   xmlns:dc="http://purl.org/dc/elements/1.1/"
   xmlns:cc="http://creativecommons.org/ns#"
   xmlns:rdf="http://www.w3.org/1999/02/22-rdf-syntax-ns#"
   xmlns:svg="http://www.w3.org/2000/svg"
   xmlns="http://www.w3.org/2000/svg"
   xmlns:sodipodi="http://sodipodi.sourceforge.net/DTD/sodipodi-0.dtd"
   xmlns:inkscape="http://www.inkscape.org/namespaces/inkscape"
   version="1.1"
   id="Layer_1"
   x="0px"
   y="0px"
   width="971.323"
   height="421.60101"
   viewBox="0 0 971.32298 421.601"
   enable-background="new 0 0 999.999 421.601"
   xml:space="preserve"
   inkscape:version="0.91 r13725"
   sodipodi:docname="Epix.svg"><metadata
     id="metadata21"><rdf:RDF><cc:Work
         rdf:about=""><dc:format>image/svg+xml</dc:format><dc:type
           rdf:resource="http://purl.org/dc/dcmitype/StillImage" /><dc:title></dc:title></cc:Work></rdf:RDF></metadata><defs
     id="defs19" /><sodipodi:namedview
     pagecolor="#ffffff"
     bordercolor="#666666"
     borderopacity="1"
     objecttolerance="10"
     gridtolerance="10"
     guidetolerance="10"
     inkscape:pageopacity="0"
     inkscape:pageshadow="2"
     inkscape:window-width="1680"
     inkscape:window-height="931"
     id="namedview17"
     showgrid="false"
     inkscape:zoom="0.3100003"
     inkscape:cx="499.99951"
     inkscape:cy="210.80051"
     inkscape:window-x="0"
     inkscape:window-y="1"
     inkscape:window-maximized="1"
     inkscape:current-layer="g3" /><g
     id="g3"
     transform="translate(0,-2.6367188e-5)"><path
       d="m 443.969,327.845 -62.843,0 0,89.891 -75.656,0 0,-320.521 134.025,0 c 65.688,0 114.703,49.623 114.703,115.313 0.205,55.727 -43.927,115.317 -110.229,115.317 m -3.864,-160.058 -58.979,0 0,86.029 60.2,0 c 21.558,0 37.42,-17.084 37.42,-42.913 0,-23.795 -14.235,-43.116 -38.641,-43.116"
       id="path5"
       inkscape:connector-curvature="0"
       style="fill:#010101" /><polygon
       points="966.849,97.215 862.111,254.425 971.323,417.735 880.212,417.735 818.995,322.353 757.779,417.735 666.666,417.735 776.083,254.425 671.141,97.215 762.254,97.215 818.995,189.954 875.94,97.215 "
       id="polygon7"
       style="fill:#010101" /><rect
       x="577.38599"
       y="97.214996"
       width="75.653999"
       height="320.51999"
       id="rect9"
       style="fill:#f48020" /><path
       d="m 654.667,39.456 c 0,21.762 -17.693,39.455 -39.455,39.455 -21.761,0 -39.659,-17.693 -39.659,-39.455 0,-21.76 17.694,-39.454 39.659,-39.454 21.762,-0.204 39.455,17.49 39.455,39.454"
       id="path11"
       inkscape:connector-curvature="0"
       style="fill:#f48020" /><path
       d="m 79.926,290.829 c 3.255,35.387 29.286,58.572 68.334,58.572 24.813,0 51.251,-10.982 70.166,-32.539 l 55.725,47.385 C 239.983,403.296 197.478,421.601 149.482,421.601 56.742,421.601 0,359.772 0,255.038 0,160.668 58.572,94.572 140.736,94.572 c 82.774,0 138.499,57.353 138.499,145.619 l 0,50.844 -199.309,0 0,-0.206 0,0 z m 60.606,-124.061 c -30.302,0 -56.335,23.186 -60.199,52.473 l 117.551,0 C 194.63,193.82 178.157,166.768 140.532,166.768"
       id="path13"
       inkscape:connector-curvature="0"
       style="fill:#010101" /></g></svg>